<svg id="svg" version="1.1" width="400" height="400" xmlns="http://www.w3.org/2000/svg" xmlns:xlink="http://www.w3.org/1999/xlink" style="display: block;"><g id="svgg"><path id="path0" d="M49.808 1.295 C 46.215 2.903,40.000 8.699,40.000 10.441 C 40.000 11.207,39.438 12.021,38.750 12.250 C 36.912 12.863,36.912 387.137,38.750 387.750 C 39.438 387.979,40.000 388.781,40.000 389.533 C 40.000 391.440,45.857 396.899,49.718 398.590 C 54.538 400.702,345.462 400.702,350.282 398.590 C 354.143 396.899,360.000 391.440,360.000 389.533 C 360.000 388.781,360.563 387.979,361.250 387.750 C 362.242 387.420,362.554 354.184,362.759 226.956 L 363.018 66.579 360.354 64.290 C 358.888 63.030,357.420 62.000,357.091 62.000 C 356.762 62.000,352.584 58.287,347.805 53.750 C 336.169 42.700,325.364 32.801,320.561 28.790 C 318.395 26.980,314.232 23.137,311.311 20.250 C 308.390 17.362,305.746 15.000,305.435 15.000 C 305.125 15.000,301.452 11.625,297.273 7.500 L 289.675 0.000 171.087 0.045 C 80.824 0.079,51.857 0.378,49.808 1.295 M268.000 57.000 L 268.000 88.000 302.500 88.000 L 337.000 88.000 337.000 231.000 L 337.000 374.000 200.000 374.000 L 63.000 374.000 63.000 200.000 L 63.000 26.000 165.500 26.000 L 268.000 26.000 268.000 57.000 M300.668 49.750 C 303.377 52.362,307.260 55.818,309.297 57.430 C 314.558 61.592,314.086 62.000,304.000 62.000 L 295.000 62.000 295.000 53.500 C 295.000 48.825,295.167 45.000,295.371 45.000 C 295.576 45.000,297.959 47.138,300.668 49.750 M213.637 98.352 C 212.737 100.250,212.000 102.245,212.000 102.787 C 212.000 103.328,211.328 105.060,210.506 106.636 C 209.685 108.211,209.010 110.287,209.006 111.250 C 209.003 112.213,208.639 113.000,208.198 113.000 C 207.756 113.000,206.565 115.362,205.549 118.250 C 204.534 121.138,203.372 123.950,202.967 124.500 C 202.562 125.050,201.918 126.963,201.536 128.750 C 201.154 130.537,200.484 132.000,200.048 132.000 C 199.612 132.000,198.968 133.800,198.616 136.000 C 198.264 138.200,197.571 140.000,197.076 140.000 C 196.581 140.000,195.872 141.800,195.500 144.000 C 195.128 146.200,194.414 148.000,193.912 148.000 C 193.410 148.000,193.000 148.624,193.000 149.386 C 193.000 150.148,192.328 152.060,191.506 153.636 C 190.685 155.211,190.010 157.287,190.006 158.250 C 190.003 159.213,189.586 160.000,189.079 160.000 C 188.573 160.000,187.856 161.380,187.485 163.067 C 187.115 164.754,186.182 167.342,185.412 168.817 C 184.642 170.293,184.010 171.978,184.006 172.562 C 184.003 173.146,183.129 175.427,182.065 177.630 C 181.001 179.832,179.827 182.842,179.456 184.317 C 179.086 185.793,178.422 187.000,177.979 187.000 C 177.537 187.000,176.872 188.800,176.500 191.000 C 176.128 193.200,175.464 195.000,175.023 195.000 C 174.583 195.000,173.927 196.575,173.566 198.500 C 173.205 200.425,172.537 202.000,172.082 202.000 C 171.628 202.000,170.968 203.800,170.616 206.000 C 170.264 208.200,169.532 210.000,168.988 210.000 C 168.445 210.000,168.000 210.606,168.000 211.346 C 168.000 212.087,167.293 214.109,166.430 215.841 C 164.328 220.054,164.883 223.412,167.750 223.820 C 168.988 223.995,170.000 224.558,170.000 225.070 C 170.000 225.581,170.787 226.003,171.750 226.006 C 172.713 226.010,174.707 226.642,176.183 227.412 C 183.102 231.022,188.000 228.867,188.000 222.213 C 188.000 221.672,188.672 219.940,189.494 218.364 C 190.315 216.789,190.990 214.713,190.994 213.750 C 190.997 212.787,191.361 212.000,191.802 212.000 C 192.244 212.000,193.435 209.637,194.451 206.750 C 195.466 203.863,196.628 201.050,197.033 200.500 C 197.438 199.950,198.082 198.037,198.464 196.250 C 198.846 194.463,199.516 193.000,199.952 193.000 C 200.388 193.000,201.032 191.200,201.384 189.000 C 201.736 186.800,202.429 185.000,202.924 185.000 C 203.419 185.000,204.128 183.200,204.500 181.000 C 204.872 178.800,205.586 177.000,206.088 177.000 C 206.590 177.000,207.000 176.376,207.000 175.614 C 207.000 174.852,207.672 172.940,208.494 171.364 C 209.315 169.789,209.990 167.713,209.994 166.750 C 209.997 165.787,210.414 165.000,210.921 165.000 C 211.427 165.000,212.144 163.620,212.515 161.933 C 212.885 160.246,213.818 157.658,214.588 156.183 C 215.358 154.707,215.990 153.022,215.994 152.438 C 215.997 151.854,216.871 149.573,217.935 147.370 C 218.999 145.168,220.173 142.158,220.544 140.683 C 220.914 139.207,221.578 138.000,222.021 138.000 C 222.463 138.000,223.128 136.200,223.500 134.000 C 223.872 131.800,224.536 130.000,224.977 130.000 C 225.417 130.000,226.073 128.425,226.434 126.500 C 226.795 124.575,227.463 123.000,227.918 123.000 C 228.372 123.000,229.032 121.200,229.384 119.000 C 229.736 116.800,230.468 115.000,231.012 115.000 C 231.555 115.000,232.000 114.394,232.000 113.654 C 232.000 112.913,232.707 110.891,233.570 109.159 C 235.672 104.946,235.117 101.588,232.250 101.180 C 231.012 101.005,230.000 100.442,230.000 99.930 C 230.000 99.419,229.213 98.997,228.250 98.994 C 227.287 98.990,225.293 98.358,223.817 97.588 C 217.745 94.420,215.420 94.594,213.637 98.352 M147.500 112.025 C 146.400 112.458,144.600 114.085,143.500 115.640 C 142.400 117.195,138.177 121.849,134.115 125.983 C 130.054 130.118,125.104 135.486,123.115 137.914 C 121.127 140.341,116.013 145.893,111.750 150.251 C 102.245 159.968,102.184 158.771,112.750 169.842 C 123.319 180.916,134.313 192.700,138.808 197.769 C 149.386 209.701,148.446 209.226,153.157 205.005 C 159.905 198.959,163.518 196.032,164.250 196.016 C 167.227 195.953,162.887 189.465,155.801 183.384 C 155.085 182.770,153.825 181.231,153.000 179.964 C 152.175 178.697,147.563 173.641,142.750 168.728 C 132.277 158.038,132.241 160.743,143.000 149.891 C 147.950 144.899,152.000 140.494,152.000 140.102 C 152.000 139.711,154.925 136.408,158.500 132.762 C 165.558 125.564,166.108 124.202,162.857 121.971 C 161.678 121.162,158.974 118.826,156.847 116.780 C 151.908 112.029,149.979 111.047,147.500 112.025 M248.618 112.194 C 247.702 112.707,245.227 114.785,243.119 116.813 C 241.011 118.841,238.322 121.162,237.143 121.971 C 234.008 124.122,234.460 125.678,239.750 130.945 C 242.363 133.546,246.284 137.853,248.464 140.517 C 250.645 143.180,255.482 148.413,259.214 152.145 C 267.403 160.334,267.668 158.094,257.250 168.728 C 252.438 173.641,247.825 178.697,247.000 179.964 C 246.175 181.231,244.915 182.770,244.199 183.384 C 237.113 189.465,232.773 195.953,235.750 196.016 C 236.482 196.032,240.095 198.959,246.843 205.005 C 251.554 209.226,250.614 209.701,261.192 197.769 C 265.687 192.700,276.681 180.916,287.250 169.842 C 297.816 158.771,297.755 159.968,288.250 150.251 C 283.988 145.893,278.873 140.341,276.885 137.914 C 274.896 135.486,269.946 130.114,265.885 125.976 C 261.823 121.838,257.454 117.044,256.175 115.323 C 253.576 111.826,251.104 110.802,248.618 112.194 M87.000 300.000 L 87.000 332.000 94.500 332.000 L 102.000 332.000 102.000 319.500 L 102.000 307.000 112.500 307.000 L 123.000 307.000 123.000 319.500 L 123.000 332.000 131.500 332.000 L 140.000 332.000 140.000 300.000 L 140.000 268.000 131.500 268.000 L 123.000 268.000 123.000 279.500 L 123.000 291.000 112.500 291.000 L 102.000 291.000 102.000 279.500 L 102.000 268.000 94.500 268.000 L 87.000 268.000 87.000 300.000 M145.000 275.000 L 145.000 282.000 152.500 282.000 L 160.000 282.000 160.000 307.000 L 160.000 332.000 168.500 332.000 L 177.000 332.000 177.000 307.039 L 177.000 282.078 185.750 281.789 L 194.500 281.500 194.796 274.750 L 195.091 268.000 170.046 268.000 L 145.000 268.000 145.000 275.000 M199.000 300.000 L 199.000 332.000 206.000 332.000 L 213.000 332.000 213.000 315.941 C 213.000 300.217,214.093 295.770,215.558 305.536 C 215.928 308.005,216.629 310.271,217.115 310.571 C 217.602 310.872,218.000 312.216,218.000 313.559 C 218.000 314.902,218.418 316.000,218.928 316.000 C 219.438 316.000,220.165 318.475,220.543 321.500 C 220.921 324.525,221.629 327.000,222.115 327.000 C 222.602 327.000,223.000 328.125,223.000 329.500 C 223.000 331.944,223.167 332.000,230.500 332.000 C 237.785 332.000,238.000 331.930,238.000 329.559 C 238.000 328.216,238.408 326.866,238.906 326.558 C 239.405 326.250,240.122 323.748,240.500 320.999 C 240.878 318.249,241.595 316.000,242.094 316.000 C 242.592 316.000,243.000 314.902,243.000 313.559 C 243.000 312.216,243.398 310.872,243.885 310.571 C 244.371 310.271,245.072 308.005,245.442 305.536 C 246.907 295.770,248.000 300.217,248.000 315.941 L 248.000 332.000 255.500 332.000 L 263.000 332.000 263.000 300.000 L 263.000 268.000 251.500 268.000 L 240.000 268.000 240.000 270.500 C 240.000 271.875,239.592 273.000,239.094 273.000 C 238.595 273.000,237.866 275.363,237.473 278.250 C 237.080 281.137,236.351 283.759,235.853 284.075 C 235.355 284.392,234.671 286.979,234.334 289.825 C 233.997 292.671,233.390 295.000,232.986 295.000 C 232.581 295.000,231.974 296.380,231.637 298.066 C 230.935 301.577,229.000 301.118,229.000 297.441 C 229.000 296.098,228.582 295.000,228.072 295.000 C 227.562 295.000,226.835 292.525,226.457 289.500 C 226.079 286.475,225.414 284.000,224.979 284.000 C 224.544 284.000,223.878 281.751,223.500 279.001 C 223.122 276.252,222.405 273.750,221.906 273.442 C 221.408 273.134,221.000 271.784,221.000 270.441 C 221.000 268.001,220.996 268.000,210.000 268.000 L 199.000 268.000 199.000 300.000 M270.000 300.000 L 270.000 332.000 291.500 332.000 L 313.000 332.000 313.000 325.000 L 313.000 318.000 300.000 318.000 L 287.000 318.000 287.000 293.000 L 287.000 268.000 278.500 268.000 L 270.000 268.000 270.000 300.000 " stroke="none" fill="#000000" fill-rule="evenodd"></path></g></svg>