<svg id="svg" version="1.1" width="400" height="400" xmlns="http://www.w3.org/2000/svg" xmlns:xlink="http://www.w3.org/1999/xlink" style="display: block;"><g id="svgg"><path id="path0" d="M220.589 81.500 C 220.244 82.875,219.520 84.000,218.981 84.000 C 218.441 84.000,218.000 84.627,218.000 85.393 C 218.000 86.159,217.325 87.045,216.500 87.362 C 215.675 87.678,215.000 88.626,215.000 89.469 C 215.000 90.311,214.586 91.000,214.079 91.000 C 213.573 91.000,212.842 92.463,212.454 94.250 C 212.066 96.037,211.330 97.767,210.818 98.094 C 210.306 98.420,209.624 101.246,209.301 104.373 C 208.978 107.500,208.328 110.297,207.857 110.588 C 206.736 111.281,206.740 121.000,207.861 121.000 C 208.335 121.000,208.966 123.588,209.264 126.750 C 209.563 129.912,210.522 133.850,211.397 135.500 C 212.272 137.150,212.990 139.063,212.994 139.750 C 212.997 140.438,213.401 141.000,213.892 141.000 C 214.382 141.000,215.066 142.125,215.411 143.500 C 215.756 144.875,216.480 146.000,217.019 146.000 C 217.559 146.000,218.000 146.511,218.000 147.135 C 218.000 147.760,219.125 149.313,220.500 150.588 C 221.875 151.862,223.000 153.329,223.000 153.849 C 223.000 155.177,234.415 165.000,235.958 165.000 C 236.476 165.000,237.260 165.575,237.700 166.279 C 238.140 166.982,240.525 168.432,243.000 169.501 C 245.475 170.570,247.759 171.807,248.075 172.249 C 248.392 172.691,250.979 173.329,253.825 173.666 C 256.671 174.003,259.000 174.666,259.000 175.139 C 259.000 176.269,282.720 176.261,283.419 175.132 C 283.714 174.654,286.215 173.964,288.978 173.597 C 291.740 173.231,294.000 172.497,294.000 171.966 C 294.000 171.435,294.819 171.000,295.820 171.000 C 296.821 171.000,299.152 169.650,301.000 168.000 C 302.848 166.350,304.729 165.000,305.180 165.000 C 306.309 165.000,309.502 161.706,311.659 158.317 C 312.645 156.768,314.025 155.140,314.726 154.700 C 315.427 154.260,316.000 153.441,316.000 152.879 C 316.000 152.317,316.675 151.182,317.500 150.357 C 318.957 148.900,319.646 143.000,318.359 143.000 C 318.006 143.000,315.785 144.912,313.422 147.250 C 307.106 153.498,301.538 157.000,297.919 157.000 C 296.864 157.000,296.000 157.450,296.000 158.000 C 296.000 158.608,291.520 159.000,284.559 159.000 C 278.010 159.000,272.854 158.572,272.500 158.000 C 272.160 157.450,270.671 156.984,269.191 156.965 C 267.711 156.945,265.375 156.286,264.000 155.500 C 262.625 154.714,260.488 154.055,259.250 154.035 C 258.012 154.016,257.000 153.586,257.000 153.079 C 257.000 152.573,255.650 151.862,254.000 151.500 C 252.350 151.138,251.000 150.457,251.000 149.988 C 251.000 149.519,250.051 148.833,248.890 148.465 C 246.566 147.728,232.000 133.493,232.000 131.959 C 232.000 131.432,231.559 131.000,231.019 131.000 C 230.480 131.000,229.756 129.875,229.411 128.500 C 229.066 127.125,228.418 126.000,227.971 126.000 C 227.524 126.000,226.862 124.650,226.500 123.000 C 226.138 121.350,225.469 120.000,225.014 120.000 C 224.560 120.000,223.878 117.751,223.500 115.001 C 223.122 112.252,222.405 109.750,221.906 109.442 C 220.667 108.676,220.753 92.271,222.000 91.500 C 222.550 91.160,223.003 90.121,223.006 89.191 C 223.010 88.261,223.685 86.211,224.506 84.636 C 226.631 80.562,226.382 79.000,223.608 79.000 C 221.891 79.000,221.040 79.705,220.589 81.500 M170.000 91.279 C 170.000 91.983,169.100 93.207,168.000 94.000 C 166.900 94.793,166.000 95.810,166.000 96.261 C 166.000 97.124,162.378 102.499,160.250 104.794 C 159.563 105.536,159.000 106.738,159.000 107.464 C 159.000 108.191,158.399 109.017,157.663 109.299 C 156.114 109.894,151.000 119.909,151.000 122.350 C 151.000 123.257,150.582 124.000,150.072 124.000 C 149.562 124.000,148.834 126.481,148.455 129.513 C 148.076 132.545,147.369 135.272,146.883 135.572 C 145.745 136.275,145.721 163.000,146.858 163.000 C 147.329 163.000,148.009 165.813,148.367 169.250 C 148.726 172.688,149.465 175.650,150.010 175.833 C 150.554 176.017,151.000 176.849,151.000 177.682 C 151.000 179.238,153.427 185.327,155.112 188.000 C 155.632 188.825,156.322 190.287,156.646 191.250 C 156.969 192.212,157.582 193.000,158.008 193.000 C 158.434 193.000,159.046 194.048,159.367 195.328 C 159.689 196.608,161.088 198.881,162.476 200.379 C 163.864 201.877,165.000 203.495,165.000 203.974 C 165.000 205.437,183.903 224.000,185.393 224.000 C 186.159 224.000,187.045 224.675,187.362 225.500 C 187.678 226.325,188.626 227.000,189.469 227.000 C 190.311 227.000,191.000 227.441,191.000 227.981 C 191.000 228.520,192.125 229.244,193.500 229.589 C 194.875 229.934,196.000 230.554,196.000 230.966 C 196.000 232.027,205.178 236.661,208.894 237.477 C 210.603 237.852,212.000 238.546,212.000 239.018 C 212.000 239.491,214.025 240.181,216.500 240.552 C 218.975 240.923,221.000 241.567,221.000 241.982 C 221.000 243.002,234.443 244.272,245.500 244.296 C 255.882 244.319,268.000 243.070,268.000 241.978 C 268.000 241.567,270.475 240.921,273.500 240.543 C 276.525 240.165,279.000 239.438,279.000 238.928 C 279.000 238.418,279.752 238.000,280.671 238.000 C 282.965 238.000,295.000 232.051,295.000 230.917 C 295.000 230.413,295.689 230.000,296.531 230.000 C 297.374 230.000,298.322 229.325,298.638 228.500 C 298.955 227.675,299.828 227.000,300.579 227.000 C 302.282 227.000,314.737 214.405,315.542 211.868 C 315.868 210.841,316.554 210.000,317.067 210.000 C 317.580 210.000,318.000 209.325,318.000 208.500 C 318.000 207.675,318.441 207.000,318.981 207.000 C 319.520 207.000,320.244 205.875,320.589 204.500 C 320.934 203.125,321.582 202.000,322.029 202.000 C 322.476 202.000,323.138 200.650,323.500 199.000 C 323.862 197.350,324.524 196.000,324.971 196.000 C 326.018 196.000,327.237 191.193,326.495 189.992 C 325.624 188.583,321.127 191.023,320.406 193.296 C 319.646 195.692,315.747 199.594,310.710 203.000 C 308.677 204.375,307.011 205.838,307.007 206.250 C 307.003 206.662,306.325 207.000,305.500 207.000 C 304.675 207.000,304.000 207.401,304.000 207.892 C 304.000 208.382,302.875 209.066,301.500 209.411 C 300.125 209.756,299.000 210.459,299.000 210.974 C 299.000 211.488,297.420 212.206,295.489 212.568 C 293.558 212.930,291.747 213.600,291.466 214.056 C 291.184 214.511,288.939 215.187,286.477 215.556 C 284.015 215.925,282.000 216.626,282.000 217.114 C 282.000 217.601,279.975 218.000,277.500 218.000 C 275.025 218.000,273.000 218.450,273.000 219.000 C 273.000 219.603,268.833 220.000,262.500 220.000 C 256.167 220.000,252.000 219.603,252.000 219.000 C 252.000 218.450,249.975 218.000,247.500 218.000 C 245.025 218.000,243.000 217.602,243.000 217.115 C 243.000 216.629,240.525 215.921,237.500 215.543 C 234.475 215.165,232.000 214.444,232.000 213.940 C 232.000 213.436,230.200 212.736,228.000 212.384 C 225.800 212.032,224.000 211.388,224.000 210.952 C 224.000 210.516,222.650 209.862,221.000 209.500 C 219.350 209.138,217.995 208.539,217.989 208.171 C 217.982 207.802,216.182 206.640,213.989 205.589 C 211.795 204.538,210.000 203.301,210.000 202.839 C 210.000 202.378,209.321 202.000,208.490 202.000 C 207.660 202.000,206.210 201.100,205.268 200.000 C 204.326 198.900,203.164 198.000,202.686 198.000 C 202.207 198.000,197.817 193.838,192.930 188.750 C 181.239 176.579,180.279 175.455,179.514 173.046 C 179.157 171.920,178.481 171.000,178.012 171.000 C 177.543 171.000,176.862 169.650,176.500 168.000 C 176.138 166.350,175.463 165.000,175.000 165.000 C 174.537 165.000,173.862 163.650,173.500 162.000 C 173.138 160.350,172.427 159.000,171.921 159.000 C 171.414 159.000,170.997 158.213,170.994 157.250 C 170.990 156.287,170.315 154.211,169.494 152.636 C 168.672 151.060,168.000 148.735,168.000 147.469 C 168.000 146.203,167.438 144.979,166.750 144.750 C 165.816 144.439,165.500 140.078,165.500 127.500 C 165.500 114.922,165.816 110.561,166.750 110.250 C 167.438 110.021,168.002 108.858,168.004 107.667 C 168.006 106.475,169.354 102.800,171.000 99.500 C 174.538 92.406,174.792 90.000,172.000 90.000 C 170.900 90.000,170.000 90.576,170.000 91.279 M105.250 114.496 C 104.563 115.277,104.000 116.194,104.000 116.535 C 104.000 116.875,102.650 118.504,101.000 120.154 C 99.350 121.804,98.000 123.591,98.000 124.125 C 98.000 124.659,96.875 126.138,95.500 127.412 C 94.125 128.687,93.000 130.076,93.000 130.500 C 93.000 130.924,91.928 132.265,90.617 133.479 C 89.306 134.694,87.926 136.658,87.550 137.844 C 87.173 139.030,86.481 140.000,86.012 140.000 C 85.543 140.000,84.862 141.350,84.500 143.000 C 84.138 144.650,83.539 146.002,83.171 146.004 C 82.802 146.006,81.680 148.143,80.679 150.754 C 79.677 153.364,78.414 156.322,77.873 157.326 C 77.331 158.331,76.619 161.481,76.291 164.326 C 75.963 167.172,75.226 169.805,74.654 170.179 C 73.245 171.097,73.299 206.433,74.711 208.198 C 75.284 208.914,76.077 212.200,76.473 215.500 C 76.869 218.800,77.505 221.950,77.887 222.500 C 78.268 223.050,79.423 226.088,80.453 229.250 C 81.482 232.412,82.644 235.000,83.035 235.000 C 83.425 235.000,84.032 236.800,84.384 239.000 C 84.736 241.200,85.433 243.000,85.932 243.000 C 86.432 243.000,87.138 244.350,87.500 246.000 C 87.862 247.650,88.565 249.000,89.060 249.000 C 89.556 249.000,90.244 250.125,90.589 251.500 C 90.934 252.875,91.618 254.000,92.108 254.000 C 92.599 254.000,93.000 254.675,93.000 255.500 C 93.000 256.325,93.420 257.000,93.933 257.000 C 94.446 257.000,95.165 257.944,95.531 259.099 C 95.898 260.253,96.941 261.996,97.849 262.972 C 98.757 263.948,101.750 267.564,104.500 271.009 C 110.381 278.375,119.746 288.000,121.032 288.000 C 121.528 288.000,123.436 289.462,125.273 291.250 C 130.047 295.895,134.231 299.000,135.717 299.000 C 136.423 299.000,137.000 299.450,137.000 300.000 C 137.000 300.550,137.620 301.000,138.378 301.000 C 139.135 301.000,140.291 301.646,140.947 302.436 C 141.602 303.225,143.457 304.161,145.069 304.515 C 146.681 304.869,148.000 305.573,148.000 306.079 C 148.000 306.586,148.675 307.000,149.500 307.000 C 150.325 307.000,151.000 307.414,151.000 307.921 C 151.000 308.427,152.350 309.138,154.000 309.500 C 155.650 309.862,157.000 310.573,157.000 311.079 C 157.000 311.586,157.563 312.003,158.250 312.006 C 158.938 312.010,160.797 312.689,162.382 313.516 C 163.968 314.342,167.005 315.297,169.132 315.637 C 171.260 315.977,173.000 316.597,173.000 317.014 C 173.000 317.432,174.238 318.029,175.750 318.342 C 185.832 320.427,189.189 320.887,194.691 320.940 C 198.096 320.973,201.160 321.450,201.500 322.000 C 202.251 323.215,221.663 323.354,222.407 322.150 C 222.696 321.683,227.063 321.033,232.111 320.706 C 237.159 320.379,241.764 319.636,242.344 319.056 C 242.925 318.475,244.660 318.000,246.200 318.000 C 247.740 318.000,249.000 317.608,249.000 317.128 C 249.000 316.648,250.740 315.977,252.868 315.637 C 254.995 315.297,258.032 314.342,259.618 313.516 C 261.203 312.689,263.288 312.010,264.250 312.006 C 265.212 312.003,266.000 311.599,266.000 311.108 C 266.000 310.618,267.021 309.960,268.270 309.647 C 269.518 309.334,271.465 308.215,272.597 307.161 C 273.728 306.107,275.723 304.905,277.030 304.490 C 278.337 304.076,279.975 303.233,280.669 302.618 C 283.747 299.890,284.961 299.000,285.602 299.000 C 286.415 299.000,307.000 278.292,307.000 277.474 C 307.000 277.165,308.018 275.815,309.261 274.474 C 310.505 273.133,312.642 269.890,314.011 267.268 C 315.380 264.646,316.725 262.275,317.000 262.000 C 318.293 260.707,321.000 255.019,321.000 253.596 C 321.000 250.915,317.372 251.807,314.863 255.106 C 313.563 256.814,311.600 259.051,310.500 260.076 C 302.216 267.800,299.655 270.000,298.951 270.000 C 298.506 270.000,297.548 270.569,296.821 271.265 C 296.095 271.961,291.900 274.250,287.500 276.350 C 283.100 278.451,278.719 280.581,277.764 281.085 C 276.809 281.588,275.346 282.000,274.514 282.000 C 273.681 282.000,273.000 282.406,273.000 282.902 C 273.000 283.398,270.188 284.127,266.750 284.522 C 263.313 284.917,260.179 285.749,259.786 286.370 C 258.774 287.972,212.854 287.950,210.904 286.346 C 210.132 285.712,206.912 284.873,203.750 284.481 C 200.588 284.090,198.000 283.371,198.000 282.885 C 198.000 282.398,197.228 282.000,196.283 282.000 C 194.305 282.000,185.745 278.924,185.000 277.946 C 184.725 277.584,182.813 276.978,180.750 276.599 C 178.688 276.220,177.000 275.516,177.000 275.034 C 177.000 274.553,175.650 273.862,174.000 273.500 C 172.350 273.138,171.000 272.435,171.000 271.940 C 171.000 271.444,169.875 270.756,168.500 270.411 C 167.125 270.066,166.000 269.382,166.000 268.892 C 166.000 268.401,165.373 268.000,164.607 268.000 C 163.841 268.000,162.955 267.325,162.638 266.500 C 162.322 265.675,161.374 265.000,160.531 265.000 C 159.689 265.000,159.000 264.580,159.000 264.067 C 159.000 263.554,157.988 262.817,156.750 262.428 C 155.512 262.040,153.509 260.660,152.298 259.361 C 151.087 258.062,149.716 257.000,149.252 257.000 C 148.247 257.000,129.000 238.146,129.000 237.161 C 129.000 236.786,127.987 235.349,126.750 233.968 C 125.513 232.586,122.948 229.216,121.051 226.478 C 119.155 223.740,117.278 221.270,116.881 220.990 C 116.484 220.709,115.849 219.247,115.471 217.740 C 115.093 216.233,114.418 215.000,113.971 215.000 C 113.524 215.000,112.862 213.650,112.500 212.000 C 112.138 210.350,111.476 209.000,111.029 209.000 C 110.582 209.000,109.918 207.762,109.552 206.250 C 108.628 202.425,106.642 198.000,105.850 198.000 C 105.486 198.000,104.866 195.637,104.473 192.750 C 104.080 189.863,103.364 187.249,102.883 186.943 C 102.401 186.637,101.713 182.909,101.354 178.660 C 100.995 174.410,100.318 170.697,99.850 170.408 C 98.682 169.686,98.772 149.389,99.953 147.236 C 100.477 146.281,101.187 142.463,101.532 138.750 C 101.877 135.037,102.516 132.000,102.952 132.000 C 103.388 132.000,104.048 130.101,104.419 127.780 C 104.790 125.459,105.410 123.321,105.797 123.030 C 107.087 122.057,110.000 116.212,110.000 114.596 C 110.000 112.630,106.949 112.566,105.250 114.496 " stroke="none" fill="#000000" fill-rule="evenodd"></path></g></svg>