<svg id="svg" version="1.1" width="400" height="400" xmlns="http://www.w3.org/2000/svg" xmlns:xlink="http://www.w3.org/1999/xlink" style="display: block;"><g id="svgg"><path id="path0" d="M49.808 1.295 C 46.215 2.903,40.000 8.699,40.000 10.441 C 40.000 11.207,39.438 12.021,38.750 12.250 C 36.912 12.863,36.912 387.137,38.750 387.750 C 39.438 387.979,40.000 388.781,40.000 389.533 C 40.000 391.440,45.857 396.899,49.718 398.590 C 54.538 400.702,345.462 400.702,350.282 398.590 C 354.143 396.899,360.000 391.440,360.000 389.533 C 360.000 388.781,360.563 387.979,361.250 387.750 C 362.242 387.420,362.554 354.184,362.759 226.956 L 363.018 66.579 360.354 64.290 C 358.888 63.030,357.420 62.000,357.091 62.000 C 356.762 62.000,352.584 58.287,347.805 53.750 C 336.169 42.700,325.364 32.801,320.561 28.790 C 318.395 26.980,314.232 23.137,311.311 20.250 C 308.390 17.362,305.746 15.000,305.435 15.000 C 305.125 15.000,301.452 11.625,297.273 7.500 L 289.675 0.000 171.087 0.045 C 80.824 0.079,51.857 0.378,49.808 1.295 M268.000 57.000 L 268.000 88.000 302.500 88.000 L 337.000 88.000 337.000 231.000 L 337.000 374.000 200.000 374.000 L 63.000 374.000 63.000 200.000 L 63.000 26.000 165.500 26.000 L 268.000 26.000 268.000 57.000 M300.668 49.750 C 303.377 52.362,307.260 55.818,309.297 57.430 C 314.558 61.592,314.086 62.000,304.000 62.000 L 295.000 62.000 295.000 53.500 C 295.000 48.825,295.167 45.000,295.371 45.000 C 295.576 45.000,297.959 47.138,300.668 49.750 M213.637 98.352 C 212.737 100.250,212.000 102.245,212.000 102.787 C 212.000 103.328,211.328 105.060,210.506 106.636 C 209.685 108.211,209.010 110.287,209.006 111.250 C 209.003 112.213,208.639 113.000,208.198 113.000 C 207.756 113.000,206.565 115.362,205.549 118.250 C 204.534 121.138,203.372 123.950,202.967 124.500 C 202.562 125.050,201.918 126.963,201.536 128.750 C 201.154 130.537,200.484 132.000,200.048 132.000 C 199.612 132.000,198.968 133.800,198.616 136.000 C 198.264 138.200,197.571 140.000,197.076 140.000 C 196.581 140.000,195.872 141.800,195.500 144.000 C 195.128 146.200,194.414 148.000,193.912 148.000 C 193.410 148.000,193.000 148.624,193.000 149.386 C 193.000 150.148,192.328 152.060,191.506 153.636 C 190.685 155.211,190.010 157.287,190.006 158.250 C 190.003 159.213,189.586 160.000,189.079 160.000 C 188.573 160.000,187.856 161.380,187.485 163.067 C 187.115 164.754,186.182 167.342,185.412 168.817 C 184.642 170.293,184.010 171.978,184.006 172.562 C 184.003 173.146,183.129 175.427,182.065 177.630 C 181.001 179.832,179.827 182.842,179.456 184.317 C 179.086 185.793,178.422 187.000,177.979 187.000 C 177.537 187.000,176.872 188.800,176.500 191.000 C 176.128 193.200,175.464 195.000,175.023 195.000 C 174.583 195.000,173.927 196.575,173.566 198.500 C 173.205 200.425,172.537 202.000,172.082 202.000 C 171.628 202.000,170.968 203.800,170.616 206.000 C 170.264 208.200,169.532 210.000,168.988 210.000 C 168.445 210.000,168.000 210.606,168.000 211.346 C 168.000 212.087,167.293 214.109,166.430 215.841 C 164.328 220.054,164.883 223.412,167.750 223.820 C 168.988 223.995,170.000 224.558,170.000 225.070 C 170.000 225.581,170.787 226.003,171.750 226.006 C 172.713 226.010,174.707 226.642,176.183 227.412 C 183.102 231.022,188.000 228.867,188.000 222.213 C 188.000 221.672,188.672 219.940,189.494 218.364 C 190.315 216.789,190.990 214.713,190.994 213.750 C 190.997 212.787,191.361 212.000,191.802 212.000 C 192.244 212.000,193.435 209.637,194.451 206.750 C 195.466 203.863,196.628 201.050,197.033 200.500 C 197.438 199.950,198.082 198.037,198.464 196.250 C 198.846 194.463,199.516 193.000,199.952 193.000 C 200.388 193.000,201.032 191.200,201.384 189.000 C 201.736 186.800,202.429 185.000,202.924 185.000 C 203.419 185.000,204.128 183.200,204.500 181.000 C 204.872 178.800,205.586 177.000,206.088 177.000 C 206.590 177.000,207.000 176.376,207.000 175.614 C 207.000 174.852,207.672 172.940,208.494 171.364 C 209.315 169.789,209.990 167.713,209.994 166.750 C 209.997 165.787,210.414 165.000,210.921 165.000 C 211.427 165.000,212.144 163.620,212.515 161.933 C 212.885 160.246,213.818 157.658,214.588 156.183 C 215.358 154.707,215.990 153.022,215.994 152.438 C 215.997 151.854,216.871 149.573,217.935 147.370 C 218.999 145.168,220.173 142.158,220.544 140.683 C 220.914 139.207,221.578 138.000,222.021 138.000 C 222.463 138.000,223.128 136.200,223.500 134.000 C 223.872 131.800,224.536 130.000,224.977 130.000 C 225.417 130.000,226.073 128.425,226.434 126.500 C 226.795 124.575,227.463 123.000,227.918 123.000 C 228.372 123.000,229.032 121.200,229.384 119.000 C 229.736 116.800,230.468 115.000,231.012 115.000 C 231.555 115.000,232.000 114.394,232.000 113.654 C 232.000 112.913,232.707 110.891,233.570 109.159 C 235.672 104.946,235.117 101.588,232.250 101.180 C 231.012 101.005,230.000 100.442,230.000 99.930 C 230.000 99.419,229.213 98.997,228.250 98.994 C 227.287 98.990,225.293 98.358,223.817 97.588 C 217.745 94.420,215.420 94.594,213.637 98.352 M147.500 112.025 C 146.400 112.458,144.600 114.085,143.500 115.640 C 142.400 117.195,138.177 121.849,134.115 125.983 C 130.054 130.118,125.104 135.486,123.115 137.914 C 121.127 140.341,116.013 145.893,111.750 150.251 C 102.245 159.968,102.184 158.771,112.750 169.842 C 123.319 180.916,134.313 192.700,138.808 197.769 C 149.386 209.701,148.446 209.226,153.157 205.005 C 159.905 198.959,163.518 196.032,164.250 196.016 C 167.227 195.953,162.887 189.465,155.801 183.384 C 155.085 182.770,153.825 181.231,153.000 179.964 C 152.175 178.697,147.563 173.641,142.750 168.728 C 132.277 158.038,132.241 160.743,143.000 149.891 C 147.950 144.899,152.000 140.494,152.000 140.102 C 152.000 139.711,154.925 136.408,158.500 132.762 C 165.558 125.564,166.108 124.202,162.857 121.971 C 161.678 121.162,158.974 118.826,156.847 116.780 C 151.908 112.029,149.979 111.047,147.500 112.025 M248.618 112.194 C 247.702 112.707,245.227 114.785,243.119 116.813 C 241.011 118.841,238.322 121.162,237.143 121.971 C 234.008 124.122,234.460 125.678,239.750 130.945 C 242.363 133.546,246.284 137.853,248.464 140.517 C 250.645 143.180,255.482 148.413,259.214 152.145 C 267.403 160.334,267.668 158.094,257.250 168.728 C 252.438 173.641,247.825 178.697,247.000 179.964 C 246.175 181.231,244.915 182.770,244.199 183.384 C 237.113 189.465,232.773 195.953,235.750 196.016 C 236.482 196.032,240.095 198.959,246.843 205.005 C 251.554 209.226,250.614 209.701,261.192 197.769 C 265.687 192.700,276.681 180.916,287.250 169.842 C 297.816 158.771,297.755 159.968,288.250 150.251 C 283.988 145.893,278.873 140.341,276.885 137.914 C 274.896 135.486,269.946 130.114,265.885 125.976 C 261.823 121.838,257.454 117.044,256.175 115.323 C 253.576 111.826,251.104 110.802,248.618 112.194 M122.342 264.195 C 116.389 267.496,112.000 271.084,112.000 272.650 C 112.000 273.392,111.550 274.000,111.000 274.000 C 110.450 274.000,110.000 274.494,110.000 275.099 C 110.000 275.703,109.388 277.616,108.641 279.349 C 107.893 281.082,106.768 283.759,106.141 285.297 C 104.667 288.911,104.655 311.048,106.125 314.703 C 106.743 316.241,107.615 318.400,108.062 319.500 C 108.509 320.600,109.158 322.512,109.505 323.750 C 109.851 324.988,110.554 326.000,111.067 326.000 C 111.580 326.000,112.000 326.575,112.000 327.278 C 112.000 328.620,113.025 329.604,119.520 334.500 C 125.145 338.740,146.979 339.649,154.383 335.951 C 159.214 333.538,165.000 328.730,165.000 327.128 C 165.000 326.586,165.571 325.548,166.268 324.821 C 166.965 324.095,168.039 322.375,168.654 321.000 L 169.773 318.500 170.495 321.250 C 170.892 322.762,171.618 324.000,172.108 324.000 C 172.599 324.000,173.000 324.609,173.000 325.354 C 173.000 327.259,176.926 331.273,181.029 333.563 C 182.938 334.628,184.821 335.950,185.213 336.500 C 185.635 337.092,192.163 337.500,201.213 337.500 C 217.673 337.500,224.859 335.240,226.647 329.500 C 226.989 328.400,227.771 327.179,228.385 326.786 C 229.088 326.336,229.500 322.216,229.500 315.622 L 229.500 305.172 224.699 300.637 C 222.059 298.143,218.909 295.794,217.699 295.417 C 216.490 295.039,215.275 294.423,215.000 294.046 C 214.203 292.956,206.153 290.000,203.980 290.000 C 202.891 290.000,202.000 289.586,202.000 289.079 C 202.000 288.573,200.650 287.862,199.000 287.500 C 197.350 287.138,196.000 286.476,196.000 286.029 C 196.000 285.582,194.875 284.934,193.500 284.589 C 187.736 283.143,192.744 277.088,199.750 277.033 C 202.088 277.015,204.000 277.401,204.000 277.892 C 204.000 278.382,205.020 279.039,206.266 279.352 C 207.585 279.683,209.010 281.189,209.678 282.958 C 210.882 286.148,213.747 287.993,214.851 286.290 C 215.208 285.739,217.300 284.971,219.500 284.582 C 226.517 283.344,229.000 281.821,229.000 278.756 C 229.000 277.240,228.580 276.000,228.067 276.000 C 227.554 276.000,226.825 275.025,226.447 273.834 C 225.626 271.246,220.356 266.243,217.522 265.360 C 216.410 265.014,215.179 264.229,214.786 263.615 C 213.723 261.953,184.807 262.080,184.250 263.750 C 184.021 264.438,183.195 265.000,182.414 265.000 C 180.510 265.000,174.058 271.935,173.352 274.741 C 170.973 284.192,175.438 299.000,180.665 299.000 C 181.399 299.000,182.000 299.414,182.000 299.921 C 182.000 300.427,183.350 301.138,185.000 301.500 C 186.650 301.862,188.000 302.553,188.000 303.034 C 188.000 303.516,189.575 304.205,191.500 304.566 C 193.425 304.927,195.000 305.623,195.000 306.111 C 195.000 306.600,195.873 307.000,196.941 307.000 C 198.009 307.000,199.139 307.415,199.452 307.923 C 199.766 308.431,201.313 309.130,202.891 309.476 C 207.615 310.514,214.737 318.000,211.000 318.000 C 210.450 318.000,210.000 318.675,210.000 319.500 C 210.000 320.325,209.325 321.000,208.500 321.000 C 207.675 321.000,207.000 321.450,207.000 322.000 C 207.000 322.550,204.525 323.000,201.500 323.000 C 198.475 323.000,196.000 322.599,196.000 322.108 C 196.000 321.618,194.905 320.942,193.567 320.606 C 192.228 320.270,190.848 319.096,190.499 317.998 C 190.151 316.899,189.498 316.000,189.049 316.000 C 188.600 316.000,187.981 315.037,187.674 313.860 C 187.094 311.644,180.520 311.613,179.081 313.820 C 178.761 314.310,176.813 315.022,174.750 315.401 C 172.688 315.780,170.986 316.633,170.968 317.295 C 170.950 317.977,170.360 317.741,169.608 316.750 C 168.839 315.737,166.957 315.000,165.140 315.000 C 163.413 315.000,162.000 314.613,162.000 314.139 C 162.000 313.089,152.516 311.865,150.469 312.650 C 149.661 312.960,149.000 313.772,149.000 314.454 C 149.000 316.216,145.494 320.031,142.400 321.636 C 139.358 323.214,134.000 323.459,134.000 322.019 C 134.000 321.480,132.970 320.780,131.712 320.464 C 129.216 319.837,126.000 313.694,126.000 309.552 C 126.000 308.213,125.550 306.840,125.000 306.500 C 123.775 305.743,123.654 294.000,124.871 294.000 C 125.350 294.000,126.041 291.750,126.406 289.000 C 126.770 286.250,127.473 284.000,127.967 284.000 C 128.461 284.000,129.119 283.212,129.430 282.250 C 130.538 278.816,141.000 274.973,141.000 278.000 C 141.000 278.550,141.868 279.000,142.930 279.000 C 144.218 279.000,145.609 280.499,147.112 283.510 L 149.365 288.020 154.432 287.363 C 157.220 287.002,159.650 286.322,159.833 285.853 C 160.017 285.384,161.718 285.000,163.615 285.000 C 167.262 285.000,169.000 282.961,167.250 280.737 C 166.714 280.057,165.953 278.155,165.559 276.510 C 165.164 274.866,164.529 273.291,164.148 273.010 C 163.766 272.730,162.653 271.242,161.674 269.704 C 160.695 268.167,158.681 266.376,157.197 265.725 C 155.714 265.074,154.179 264.082,153.787 263.520 C 152.134 261.154,126.848 261.696,122.342 264.195 M250.750 262.642 C 249.787 262.920,249.000 263.564,249.000 264.073 C 249.000 264.583,248.438 265.007,247.750 265.016 C 246.158 265.036,240.000 270.425,240.000 271.798 C 240.000 272.368,239.438 273.021,238.750 273.250 C 237.873 273.542,237.500 276.369,237.500 282.731 L 237.500 291.796 242.203 296.367 C 244.790 298.881,248.053 301.226,249.453 301.578 C 250.854 301.929,252.000 302.578,252.000 303.021 C 252.000 303.463,253.800 304.128,256.000 304.500 C 258.200 304.872,260.000 305.586,260.000 306.088 C 260.000 306.590,260.873 307.000,261.941 307.000 C 263.009 307.000,264.129 307.400,264.432 307.889 C 264.734 308.378,266.129 309.067,267.532 309.419 C 274.385 311.139,277.854 317.632,273.750 321.056 C 271.381 323.032,260.000 323.903,260.000 322.108 C 260.000 321.618,258.882 320.936,257.515 320.593 C 255.982 320.208,254.792 319.018,254.407 317.485 C 254.064 316.118,253.382 315.000,252.892 315.000 C 252.401 315.000,252.000 314.267,252.000 313.372 C 252.000 311.610,244.156 312.130,243.020 313.968 C 242.723 314.448,241.134 315.164,239.490 315.559 C 233.919 316.895,232.603 320.592,236.299 324.516 C 236.960 325.217,238.620 327.188,239.989 328.895 C 241.358 330.603,243.045 332.000,243.739 332.000 C 244.433 332.000,245.000 332.366,245.000 332.813 C 245.000 337.479,276.813 340.024,284.041 335.937 C 295.339 329.548,299.308 310.985,291.250 302.217 C 290.563 301.469,290.000 300.488,290.000 300.037 C 290.000 299.586,288.875 298.934,287.500 298.589 C 286.125 298.244,285.000 297.556,285.000 297.060 C 285.000 296.565,283.650 295.862,282.000 295.500 C 280.350 295.138,279.000 294.537,279.000 294.165 C 279.000 293.345,274.583 291.374,270.567 290.402 C 268.953 290.011,266.478 289.088,265.067 288.352 C 263.655 287.615,261.938 287.010,261.250 287.006 C 260.563 287.003,260.000 286.550,260.000 286.000 C 260.000 285.450,259.325 285.000,258.500 285.000 C 257.675 285.000,257.000 284.363,257.000 283.583 C 257.000 282.804,256.438 281.904,255.750 281.583 C 254.755 281.119,254.759 280.880,255.768 280.411 C 256.465 280.087,257.671 279.187,258.446 278.411 C 262.110 274.747,274.000 278.422,274.000 283.217 C 274.000 284.483,276.614 287.000,277.929 287.000 C 278.518 287.000,279.000 286.602,279.000 286.115 C 279.000 285.629,281.475 284.921,284.500 284.543 C 287.525 284.165,290.000 283.438,290.000 282.928 C 290.000 282.418,290.900 282.000,292.000 282.000 C 293.183 282.000,294.000 281.333,294.000 280.368 C 294.000 276.641,284.530 265.000,281.497 265.000 C 280.766 265.000,279.979 264.438,279.750 263.750 C 279.327 262.478,254.598 261.534,250.750 262.642 " stroke="none" fill="#000000" fill-rule="evenodd"></path></g></svg>